# xmcd
#
# Track frame offsets:
#	150
#	18487
#	35208
#	53990
#	66740
#	82051
#	95538
#	114842
#	131820
#	148604
#
# Disc length: 2236 seconds
#
# Revision: 0
# Processed by: cddbd v1.5.2PL0 Copyright (c) Steve Scherf et al.
# Submitted via: EasyCDDAExtractor 12.0.1.1
#
DISCID=9708ba0a
DTITLE=Various Artist - Best Of Greatest Country Ballads
DYEAR=2008
DGENRE=Country
TTITLE0=tommy overstreet - georgia
TTITLE1=david houston - for the good times
TTITLE2=faron young - she believes in me
TTITLE3=jack greene - i can't stop loving you
TTITLE4=tommy cash - he stopped loving her today
TTITLE5=johnny paycheck - funny how time slips away
TTITLE6=nat stuckey - i believe in you
TTITLE7=henson cargill - always on my mind
TTITLE8=freddy weller - stand by me
TTITLE9=ferlin husky - help me make it through the night
EXTD=
EXTT0=
EXTT1=
EXTT2=
EXTT3=
EXTT4=
EXTT5=
EXTT6=
EXTT7=
EXTT8=
EXTT9=
PLAYORDER=
